<?xml version="1.0" encoding="utf-8"?>
<!-- Generator: Adobe Illustrator 25.0.0, SVG Export Plug-In . SVG Version: 6.00 Build 0)  -->
<svg version="1.1" id="图层_1" xmlns="http://www.w3.org/2000/svg" xmlns:xlink="http://www.w3.org/1999/xlink" x="0px" y="0px"
	 viewBox="0 0 470.2 176.6" style="enable-background:new 0 0 470.2 176.6;" xml:space="preserve">
<style type="text/css">
	.st0{fill:#0700FF;}
	.st1{fill:#000DE9;}
	.st2{font-family:'WeibeiSC-Bold-GBpc-EUC-H';}
	.st3{font-size:91.227px;}
	.st4{fill:#0047FF;}
	.st5{font-size:16px;}
</style>
<path class="st0" d="M136.9,135.3v20.1c0,6.4-5.2,11.6-11.6,11.6h-1.2c-6.4,0-11.6-5.2-11.6-11.6v-29.1c0-5.2,3.5-9.7,8.4-11.1
	c23.8-6.9,42.4-25.5,49.3-49.3c1.4-5,5.9-8.4,11.1-8.4h1.2c6.4,0,11.6,5.1,11.6,11.5c0,1-0.1,2-0.4,3
	C185.9,100.7,164.8,124.2,136.9,135.3L136.9,135.3z"/>
<path class="st0" d="M57,132.4C32.2,120.5,13.7,98.5,6.2,72c-1.7-6.1,1.9-12.5,8-14.2c1-0.3,2.1-0.4,3.2-0.4h0.8
	c5.2,0,9.7,3.5,11.1,8.4c6.9,23.8,25.5,42.4,49.3,49.3c5,1.4,8.4,5.9,8.4,11.1v29.1c0,6.4-5.2,11.6-11.6,11.6
	c-6.4,0-11.6-5.2-11.6-11.6V143C63.9,138.4,61.2,134.3,57,132.4L57,132.4z"/>
<path class="st0" d="M-8.2,56.6h1l0,0H-8.2C-8.2,56.6-8.2,56.6-8.2,56.6z M6.7,70.8h1l0,0H6.7L6.7,70.8z M150.4,54.1
	C150.4,54.1,150.4,54.1,150.4,54.1L135.9,22v-3.1h-26.6c0-4.6-3-7.8-6.9-7.8c-3.7,0-6.9,3.1-6.9,7.8H69.5h-0.2v3.6L55,54.1
	c0,0,0,0,0,0c0,0,0,0,0,0l0,0h0c0,9.4,6.7,17.9,17.2,17.9c10.7,0,17.2-8.5,17.2-17.9h0l0,0c0,0,0,0,0,0c0,0,0,0,0,0l-13-28.9H97
	v60.9l-20.3,0c-7.8,0-11,3.8-11,11h74c0-6.2-3.2-11-11-11h-10.8h-10.7l0-60.9h21.9l-13,28.9c0,0,0,0,0,0c0,9.4,6.7,17.9,17.2,17.9
	C143.9,71.9,150.4,63.4,150.4,54.1L150.4,54.1L150.4,54.1C150.4,54.1,150.4,54.1,150.4,54.1z M81.9,54.1c-5.8,0-13.7,0-19.5,0
	l9.8-24.8L81.9,54.1z M123.5,54.1l9.7-24.8l9.7,24.8C137.2,54.1,129.3,54.1,123.5,54.1z"/>
<text transform="matrix(0.95 0 0 1 212.3406 120.9129)" class="st1 st2 st3">懂法宝</text>
<text transform="matrix(1 0 0 1 229.0414 161.0163)" class="st4 st2 st5">一个人人都在用的法律服务平台</text>
</svg>
