<?xml version="1.0" standalone="no"?><!DOCTYPE svg PUBLIC "-//W3C//DTD SVG 1.1//EN"
        "http://www.w3.org/Graphics/SVG/1.1/DTD/svg11.dtd">
<svg t="1664097507619" class="icon" viewBox="0 0 1024 1024" version="1.1" xmlns="http://www.w3.org/2000/svg" p-id="2353"
     xmlns:xlink="http://www.w3.org/1999/xlink" width="128" height="128">
    <path id="test" d="M511.957333 961.664c-131.2 0-375.125333-200.533333-375.125333-390.528v-378.026667l37.248-0.597333a529.450667 529.450667 0 0 0 169.984-36.650667 751.146667 751.146667 0 0 0 145.493333-77.354666l22.272-16.256 22.442667 16.256a755.882667 755.882667 0 0 0 145.493333 77.354666 530.474667 530.474667 0 0 0 170.112 36.650667l37.12 0.597333v378.069334c0.170667 189.781333-243.797333 390.485333-375.04 390.485333z m-150.698666-238.549333a18.688 18.688 0 0 0-18.688 18.645333 18.688 18.688 0 0 0 18.688 18.645333h307.797333a18.688 18.688 0 0 0 18.645333-18.645333 18.688 18.688 0 0 0-18.645333-18.645333h-137.642667V339.925333h180.053334a18.688 18.688 0 0 0 18.645333-18.645333 18.688 18.688 0 0 0-18.645333-18.645333h-160.682667a3.712 3.712 0 0 1 0-0.512v-0.512a38.4 38.4 0 0 0-38.144-38.144 38.4 38.4 0 0 0-38.144 38.144 7.296 7.296 0 0 0 0 0.853333H318.165333a18.688 18.688 0 0 0-18.645333 18.645333 18.688 18.688 0 0 0 18.645333 18.645334h175.744v383.189333z m212.352-207.530667a18.688 18.688 0 0 0-18.645334 18.645333 111.658667 111.658667 0 0 0 110.933334 117.12 111.616 111.616 0 0 0 110.933333-117.12 18.688 18.688 0 0 0-18.645333-18.645333z m-307.797334 0a18.688 18.688 0 0 0-18.645333 18.645333 111.658667 111.658667 0 0 0 110.933333 117.12 111.616 111.616 0 0 0 110.933334-117.12 18.688 18.688 0 0 0-18.645334-18.645333z m452.48-22.442667h1.450667a18.432 18.432 0 0 0 10.112-2.986666 18.517333 18.517333 0 0 0 8.106667-11.733334 18.517333 18.517333 0 0 0-2.602667-14.037333l-52.394667-81.066667a18.688 18.688 0 0 0-15.701333-8.533333h-3.413333a18.517333 18.517333 0 0 0-15.658667 8.96l-49.237333 81.066667a18.688 18.688 0 0 0 6.229333 25.6 18.602667 18.602667 0 0 0 9.685333 2.688h3.2a18.773333 18.773333 0 0 0 16-8.96l32.256-53.034667 34.56 53.504a18.730667 18.730667 0 0 0 15.701334 8.533333z m-358.144-64.469333l36.181334 55.978667a18.730667 18.730667 0 0 0 15.701333 8.533333 18.389333 18.389333 0 0 0 10.112-2.986667 18.517333 18.517333 0 0 0 8.106667-11.733333 18.517333 18.517333 0 0 0-2.56-14.037333l-52.394667-81.066667a18.688 18.688 0 0 0-15.701333-8.533333h-0.213334a18.474667 18.474667 0 0 0-15.658666 8.96l-49.28 81.066666a18.773333 18.773333 0 0 0 6.272 25.6 18.645333 18.645333 0 0 0 9.685333 2.688 18.773333 18.773333 0 0 0 15.957333-8.96l33.749334-55.466666z m305.749334 185.386667a71.850667 71.850667 0 0 1-71.850667-61.141334h143.658667a71.722667 71.722667 0 0 1-71.808 61.184z m-307.797334 0a71.765333 71.765333 0 0 1-71.936-61.098667h143.616a71.765333 71.765333 0 0 1-71.68 61.141333z"
          fill="#0A8CE1" p-id="2354">
    </path>
</svg>